<svg width="85" height="31" viewBox="0 0 85 31" fill="none" xmlns="http://www.w3.org/2000/svg">
<path d="M8.112 17.636C9.472 17.636 10.632 18.124 11.592 19.1C12.552 20.06 13.032 21.22 13.032 22.58C13.032 23.94 12.552 25.1 11.592 26.06C10.632 27.02 9.472 27.5 8.112 27.5H1.2V24.596H8.112C8.672 24.596 9.144 24.404 9.528 24.02C9.928 23.62 10.128 23.14 10.128 22.58C10.128 22.02 9.928 21.548 9.528 21.164C9.144 20.764 8.672 20.564 8.112 20.564H6.12C4.76 20.564 3.6 20.084 2.64 19.124C1.68 18.148 1.2 16.98 1.2 15.62C1.2 14.26 1.68 13.1 2.64 12.14C3.6 11.18 4.76 10.7 6.12 10.7H12.048V13.604H6.12C5.576 13.604 5.104 13.804 4.704 14.204C4.304 14.604 4.104 15.084 4.104 15.644C4.104 16.188 4.304 16.66 4.704 17.06C5.104 17.444 5.576 17.636 6.12 17.636H8.112ZM32.418 10.7H35.418L31.17 27.5H28.17L25.434 16.652L22.698 27.5H19.698L15.45 10.7H18.45L21.186 21.548L23.922 10.7H26.922L29.682 21.548L32.418 10.7Z" fill="#828282"/>
<g clip-path="url(#clip0_84_1099)">
<path d="M45.5 0V22.8649L37 16.1351L45.5 0Z" fill="#828282"/>
<path d="M45.5 0V22.8649L54 16.1351L45.5 0Z" fill="#EAEAEA"/>
<path d="M45.5 31.0002V24.6218L37 17.8921L45.5 31.0002Z" fill="#828282"/>
<path d="M45.5 31.0002V24.6218L54 17.8921L45.5 31.0002Z" fill="#EAEAEA"/>
</g>
<path d="M64.112 10.7C65.008 10.7 65.832 10.924 66.584 11.372C67.352 11.804 67.952 12.396 68.384 13.148C68.816 13.9 69.032 14.724 69.032 15.62C69.032 16.98 68.552 18.14 67.592 19.1C66.632 20.06 65.472 20.54 64.112 20.54H60.104V27.5H57.2V17.636H64.112C64.672 17.636 65.144 17.444 65.528 17.06C65.928 16.66 66.128 16.18 66.128 15.62C66.128 15.06 65.928 14.588 65.528 14.204C65.144 13.804 64.672 13.604 64.112 13.604H57.2V10.7H64.112ZM83.306 15.62C83.306 16.98 82.826 18.14 81.866 19.1C82.826 20.06 83.306 21.22 83.306 22.58C83.306 23.94 82.826 25.1 81.866 26.06C80.906 27.02 79.738 27.5 78.362 27.5H71.45V24.596H78.362C78.922 24.596 79.402 24.404 79.802 24.02C80.202 23.62 80.402 23.14 80.402 22.58C80.402 22.212 80.306 21.876 80.114 21.572C79.938 21.252 79.69 21.004 79.37 20.828C79.066 20.652 78.738 20.564 78.386 20.564H73.442V17.636H78.386C78.738 17.636 79.066 17.548 79.37 17.372C79.69 17.196 79.938 16.956 80.114 16.652C80.29 16.332 80.378 15.996 80.378 15.644C80.378 15.276 80.29 14.94 80.114 14.636C79.938 14.316 79.69 14.068 79.37 13.892C79.066 13.7 78.73 13.604 78.362 13.604H71.45V10.7H78.362C78.906 10.7 79.426 10.788 79.922 10.964C80.434 11.124 80.89 11.356 81.29 11.66C81.69 11.964 82.042 12.316 82.346 12.716C82.65 13.116 82.882 13.572 83.042 14.084C83.218 14.58 83.306 15.092 83.306 15.62Z" fill="#828282"/>
<defs>
<clipPath id="clip0_84_1099">
<rect width="17" height="31" fill="white" transform="translate(37)"/>
</clipPath>
</defs>
</svg>
