<svg width="24" height="24" viewBox="0 0 24 24" fill="none" xmlns="http://www.w3.org/2000/svg">
<path d="M23.0366 7.33624C22.4293 5.91092 21.5707 4.63231 20.4607 3.5214C19.3508 2.41048 18.0942 1.55109 16.6702 0.943231C15.1832 0.31441 13.6126 0 12 0C10.3665 0 8.79581 0.31441 7.32984 0.943231C5.90576 1.55109 4.62827 2.41048 3.51832 3.5214C2.40838 4.63231 1.54974 5.91092 0.942408 7.33624C0.314136 8.80349 0 10.3755 0 12.0105C0 13.6245 0.314136 15.1965 0.942408 16.6847C1.54974 18.11 2.40838 19.3886 3.51832 20.4996C4.62827 21.6105 5.90576 22.4699 7.32984 23.0568C8.81675 23.6856 10.3874 24 12 24C13.6126 24 15.1832 23.6856 16.6702 23.0568C18.0942 22.4489 19.3717 21.5895 20.4817 20.4786C21.5916 19.3677 22.4503 18.0891 23.0576 16.6638C23.6859 15.1755 24 13.6035 24 11.9895C24 10.3755 23.6649 8.80349 23.0366 7.33624ZM8.02094 10.8786C8.50262 8.95022 10.2618 7.54585 12.3351 7.54585H20.6702C21.2147 8.57293 21.5497 9.7048 21.6754 10.8786H8.02094ZM21.6754 13.1424C21.5497 14.3162 21.1937 15.448 20.6702 16.4751H12.3351C10.2618 16.4751 8.52356 15.0498 8.02094 13.1424H21.6754ZM5.10995 5.11441C6.95288 3.26987 9.40314 2.26376 12 2.26376C14.5969 2.26376 17.0471 3.26987 18.8901 5.11441C18.9529 5.17729 18.9948 5.21921 19.0576 5.2821H12.3351C10.534 5.2821 8.85864 5.9738 7.58115 7.2524C6.57592 8.25852 5.9267 9.51616 5.71728 10.8786H2.32461C2.57592 8.69869 3.53927 6.68646 5.10995 5.11441ZM12 21.7572C9.40314 21.7572 6.95288 20.7511 5.10995 18.9065C3.53927 17.3345 2.57592 15.3013 2.32461 13.1424H5.71728C5.94764 14.5048 6.59686 15.7624 7.58115 16.7686C8.85864 18.0472 10.534 18.7389 12.3351 18.7389H19.0576C18.9948 18.8017 18.9529 18.8437 18.8901 18.9065C17.0471 20.7511 14.5969 21.7572 12 21.7572Z" fill="black"/>
</svg>
